<svg viewBox="0 0 16 16" xmlns="http://www.w3.org/2000/svg">
<path class="stroke-linecap-round" d="M9.5 13.75C7.50804 14.4839 3.06583 14.7633 2 10.5C0.999999 6.5 3.92724 3.59559 5.69677 2.65177C7.53826 1.66958 11.2196 1.17172 13.0377 3.59564C14.9248 6.11174 13.6667 9.88598 12.4086 10.5152C11.1505 11.1444 10.4585 10.7668 10.2069 10.5152C10.1493 10.4576 10.1016 10.3934 10.0623 10.3248C9.80371 9.87439 9.94185 9.31484 10.0401 8.80487L10.7181 5.28679" />
<path d="M10.718 6.64274C10.4034 6.22337 9.46433 5.28633 8.45783 5.28633C7.19971 5.28633 5.80364 6.42627 5.48911 8.31346C5.17458 10.2006 6.11863 10.9555 7.06188 10.9555C8.00512 10.9555 9.26359 10.5152 9.89265 9.57158" />
</svg>
