<svg viewBox="0 0 16 16" xmlns="http://www.w3.org/2000/svg">
<path d="M8.90723 1.00488C10.1804 1.00488 11.2699 1.23451 12.1748 1.69336C13.0902 2.14177 13.7904 2.79336 14.2744 3.64844C14.7584 4.49309 15 5.51048 15 6.69922C14.9999 7.68971 14.842 8.56601 14.5264 9.32715C14.2107 10.0882 13.7744 10.6829 13.2168 11.1104C12.6592 11.5379 12.0118 11.7509 11.2754 11.751C10.7915 11.751 10.3704 11.6626 10.0127 11.4854C9.65493 11.3081 9.38591 11.0577 9.20703 10.7344C8.93349 11.0471 8.59191 11.3029 8.18164 11.501C7.77127 11.6887 7.36057 11.7822 6.9502 11.7822C6.16112 11.7822 5.5566 11.537 5.13574 11.0469C4.71487 10.5567 4.50391 9.85321 4.50391 8.93555C4.50391 8.30987 4.59869 7.71545 4.78809 7.15234C4.97749 6.58923 5.23534 6.08837 5.56152 5.65039C5.88761 5.2126 6.26093 4.86839 6.68164 4.61816C7.11298 4.36793 7.56054 4.24321 8.02344 4.24316C8.77052 4.24316 9.36568 4.51957 9.80762 5.07227L9.90234 4.83691C9.95485 4.69134 10.0122 4.5974 10.0752 4.55566C10.1489 4.50352 10.2599 4.47754 10.4072 4.47754H11.2598C11.4803 4.47767 11.5907 4.5714 11.5908 4.75879C11.5908 4.82136 11.5745 4.94186 11.543 5.11914L10.8174 9.32715C10.7859 9.52504 10.7695 9.66566 10.7695 9.74902C10.7695 10.1244 10.9805 10.3125 11.4014 10.3125C11.7486 10.3125 12.0594 10.1556 12.333 9.84277C12.6169 9.53003 12.8373 9.10246 12.9951 8.56055C13.1529 8.0184 13.2324 7.40292 13.2324 6.71484C13.2324 5.38002 12.8533 4.36276 12.0957 3.66406C11.3487 2.95504 10.265 2.60064 8.84473 2.60059C7.99242 2.60059 7.20261 2.76168 6.47656 3.08496C5.7611 3.39781 5.13524 3.84152 4.59863 4.41504C4.07256 4.97814 3.6618 5.65055 3.36719 6.43262C3.07257 7.20428 2.92579 8.04914 2.92578 8.9668C2.92578 10.3955 3.29371 11.4907 4.03027 12.252C4.76684 13.0236 5.8247 13.4092 7.20312 13.4092C7.57132 13.4092 7.90269 13.3832 8.19727 13.3311C8.50241 13.2893 8.81834 13.227 9.14453 13.1436C9.29169 13.1019 9.39684 13.0707 9.45996 13.0498C9.5231 13.0394 9.57607 13.0342 9.61816 13.0342C9.81782 13.0343 9.91793 13.1435 9.91797 13.3623V14.0664C9.91796 14.2018 9.89136 14.3059 9.83887 14.3789C9.79678 14.4519 9.70709 14.5143 9.57031 14.5664C8.81274 14.8584 7.96063 15.0049 7.01367 15.0049C5.76163 15.0049 4.68319 14.7648 3.77832 14.2852C2.88392 13.8055 2.19399 13.1175 1.70996 12.2207C1.23645 11.3239 1 10.2494 1 8.99805C1.00001 7.85115 1.19478 6.79292 1.58398 5.82324C1.98379 4.84309 2.53632 3.99294 3.24121 3.27344C3.95673 2.55388 4.79344 1.99589 5.75098 1.59961C6.71894 1.20337 7.77094 1.00492 8.90723 1.00488ZM8.48145 5.74414C8.13421 5.74414 7.81828 5.88023 7.53418 6.15137C7.25017 6.42247 7.01868 6.78738 6.83984 7.24609C6.67149 7.69451 6.58691 8.19535 6.58691 8.74805C6.58695 9.76992 6.95585 10.2812 7.69238 10.2812C8.16579 10.2812 8.59196 10.0515 8.9707 9.59277C8.9707 9.47806 8.98601 9.30559 9.01758 9.07617L9.53906 6.02637C9.18132 5.83867 8.82867 5.74415 8.48145 5.74414Z" class="filled no-stroke"/>
</svg>