<svg viewBox="0 0 16 16" xmlns="http://www.w3.org/2000/svg">
<path class="stroke-linecapround" d="M10.0867 14.2624C7.88392 15.074 2.85239 15.5145 1.73935 10.784C0.626317 6.05343 3.49016 3.1319 5.44701 2.08818C7.48343 1.002 11.5545 0.451444 13.565 3.13195C15.6519 5.91441 14.2606 10.0882 12.8693 10.784C11.478 11.4798 10.7128 11.0622 10.4346 10.784C10.3709 10.7203 10.3181 10.6493 10.2746 10.5735C9.9887 10.0754 10.1415 9.45659 10.2501 8.89262L10.9999 5.00213" />
<path d="M10.999 6.50195C10.6512 6.03819 9.61267 5.00195 8.49963 5.00195C7.10832 5.00195 5.56447 6.26257 5.21664 8.34952C4.86881 10.4365 5.9128 11.2713 6.9559 11.2713C7.99899 11.2713 9.39068 10.7843 10.0863 9.74083" />
</svg>
