<svg viewBox="0 0 16 16" xmlns="http://www.w3.org/2000/svg">
<path d="M13.99 7.08252C13.99 4.32252 11.75 2.08252 8.98999 2.08252" class="stroke-linejoin-round"/>
<path d="M11.07 10.0025C10.47 10.5825 9.51999 10.6125 8.92999 10.0225L6.04999 7.1425C5.45999 6.5525 5.45999 5.6025 6.04999 5.0225C6.56999 4.5025 6.56999 3.6625 6.04999 3.1425L5.19998 2.2925C4.80998 1.9025 4.17998 1.9025 3.78998 2.2925L3.41 2.6725C2.5 3.5825 2 4.8025 2 6.0825C2 7.3625 2.51 8.5925 3.41 9.4925L6.57999 12.6625C7.48999 13.5725 8.70999 14.0725 9.98999 14.0725C11.27 14.0725 12.5 13.5625 13.4 12.6625L13.78 12.2825C14.17 11.8925 14.17 11.2625 13.78 10.8725L12.93 10.0225C12.42 9.5125 11.59 9.5025 11.07 10.0025Z" class="stroke-linejoin-round"/>
</svg>
