<svg viewBox="0 0 16 16" xmlns="http://www.w3.org/2000/svg">
<path d="M7 2.5C7 3.32843 6.32843 4 5.5 4C4.67157 4 4 3.32843 4 2.5C4 1.67157 4.67157 1 5.5 1C6.32843 1 7 1.67157 7 2.5Z" class="filled no-stroke"/>
<path d="M12 2.5C12 3.32843 11.3284 4 10.5 4C9.67157 4 9 3.32843 9 2.5C9 1.67157 9.67157 1 10.5 1C11.3284 1 12 1.67157 12 2.5Z" class="filled no-stroke"/>
<path d="M5.5 9.5C6.32843 9.5 7 8.82843 7 8C7 7.17157 6.32843 6.5 5.5 6.5C4.67157 6.5 4 7.17157 4 8C4 8.82843 4.67157 9.5 5.5 9.5Z" class="filled no-stroke"/>
<path d="M12 8C12 8.82843 11.3284 9.5 10.5 9.5C9.67157 9.5 9 8.82843 9 8C9 7.17157 9.67157 6.5 10.5 6.5C11.3284 6.5 12 7.17157 12 8Z" class="filled no-stroke"/>
<path d="M5.5 15C6.32843 15 7 14.3284 7 13.5C7 12.6716 6.32843 12 5.5 12C4.67157 12 4 12.6716 4 13.5C4 14.3284 4.67157 15 5.5 15Z" class="filled no-stroke"/>
<path d="M12 13.5C12 14.3284 11.3284 15 10.5 15C9.67157 15 9 14.3284 9 13.5C9 12.6716 9.67157 12 10.5 12C11.3284 12 12 12.6716 12 13.5Z" class="filled no-stroke"/>
</svg>
