<svg viewBox="0 0 16 16" xmlns="http://www.w3.org/2000/svg">
<path class="stroke-linejoin-round" d="M5.19 12.275L0.999999 12.975L1.7 8.78501L8.9 1.585C9.68 0.805005 10.95 0.805005 11.73 1.585L12.39 2.245C13.17 3.025 13.17 4.29501 12.39 5.07501L10.525 6.92501" />
<path class="stroke-linejoin-round" d="M10.99 5.97501L7.99001 2.97501" />
<path class="filled no-stroke" d="M13.888 12.329L11.592 11.4078L10.668 9.10469C10.612 8.9651 10.388 8.9651 10.332 9.10469L9.408 11.4078L7.112 12.329C7.112 12.329 7 12.4267 7 12.4965C7 12.5663 7.042 12.6361 7.112 12.664L7.182 12.6919L9.408 13.5852L10.332 15.8883C10.332 15.8883 10.43 16 10.5 16C10.57 16 10.64 15.9581 10.668 15.8883L11.592 13.5852L13.888 12.664C13.888 12.664 14 12.5663 14 12.4965C14 12.4267 13.958 12.3569 13.888 12.329Z" />
</svg>
