<svg viewBox="0 0 16 16" xmlns="http://www.w3.org/2000/svg">
<circle cx="8" cy="8" r="7"/>
<path d="M6 7C6.55228 7 7 6.55228 7 6C7 5.44772 6.55228 5 6 5C5.44772 5 5 5.44772 5 6C5 6.55228 5.44772 7 6 7Z" class="filled no-stroke"/>
<path d="M10.01 7C10.5623 7 11.01 6.55228 11.01 6C11.01 5.44772 10.5623 5 10.01 5C9.45772 5 9.01001 5.44772 9.01001 6C9.01001 6.55228 9.45772 7 10.01 7Z" class="filled no-stroke"/>
<path d="M10.83 11C10.41 9.84 9.30004 9 8.00004 9C6.70004 9 5.59004 9.84 5.17004 11" class="stroke-linejoin-round"/>
</svg>
