<svg viewBox="0 0 16 16" xmlns="http://www.w3.org/2000/svg">
<path d="M8 1C4.13 1 1 4.13 1 8C1 11.87 4.13 15 8 15C11.87 15 15 11.87 15 8C15 4.13 11.87 1 8 1ZM10.01 4.76C10.7 4.76 11.26 5.32 11.26 6.01C11.26 6.7 10.7 7.26 10.01 7.26C9.32 7.26 8.76 6.7 8.76 6.01C8.76 5.32 9.32 4.76 10.01 4.76ZM6 4.76C6.69 4.76 7.25 5.32 7.25 6.01C7.25 6.7 6.69 7.26 6 7.26C5.31 7.26 4.75 6.7 4.75 6.01C4.75 5.32 5.31 4.76 6 4.76ZM9.89 11.34C9.6 10.54 8.85 10 8.01 10C7.17 10 6.41 10.54 6.13 11.34L4.25 10.67C4.82 9.08 6.33 8.01 8.02 8.01C9.71 8.01 11.22 9.08 11.79 10.67L9.91 11.34H9.89Z" class="filled no-stroke"/>
<path d="M8 0.5C3.85357 0.5 0.5 3.85357 0.5 8C0.5 12.1464 3.85357 15.5 8 15.5C12.1464 15.5 15.5 12.1464 15.5 8C15.5 3.85357 12.1464 0.5 8 0.5ZM8 2.05853C11.6091 2.05853 14.0085 4.62478 14.0085 8C14.0085 10.4041 11.9638 14.0135 8 14.0135C4.18158 14.0135 1.99087 11.1135 1.99087 8C1.99087 5.39675 3.70171 2.05853 8 2.05853Z" class="filled no-stroke"/>
</svg>
