<svg viewBox="0 0 16 16" xmlns="http://www.w3.org/2000/svg">
<path d="M1.10277 7.99507C1.10277 4.18461 4.18461 1.10276 7.99508 1.10276C11.8055 1.10276 14.8874 4.18461 14.8874 7.99507C14.8874 11.8055 11.8055 14.8874 7.99508 14.8874C4.18461 14.8874 1.10277 11.8055 1.10277 7.99507ZM7.01046 6.02584C7.01046 5.4843 6.56738 5.04123 6.02585 5.04123C5.48431 5.04123 5.04123 5.4843 5.04123 6.02584C5.04123 6.56738 5.48431 7.01046 6.02585 7.01046C6.56738 7.01046 7.01046 6.56738 7.01046 6.02584ZM8.98954 6.02584C8.98954 6.56738 9.43261 7.01046 9.97415 7.01046C10.5157 7.01046 10.9588 6.56738 10.9588 6.02584C10.9588 5.4843 10.5157 5.04123 9.97415 5.04123C9.43261 5.04123 8.98954 5.4843 8.98954 6.02584ZM5 10.875H11V9.125H5V10.875Z" class="filled no-stroke"/>
<path d="M8 0.5C3.85357 0.5 0.5 3.85357 0.5 8C0.5 12.1464 3.85357 15.5 8 15.5C12.1464 15.5 15.5 12.1464 15.5 8C15.5 3.85357 12.1464 0.5 8 0.5ZM8 2.05853C11.6091 2.05853 14.0085 4.62478 14.0085 8C14.0085 10.4041 11.9638 14.0135 8 14.0135C4.18158 14.0135 1.99087 11.1135 1.99087 8C1.99087 5.39675 3.70171 2.05853 8 2.05853Z" class="filled no-stroke"/>
</svg>
