<svg viewBox="0 0 16 16" xmlns="http://www.w3.org/2000/svg">
<path d="M1.10289 7.99508C1.10289 4.18461 4.18473 1.10277 7.99519 1.10277C11.8057 1.10277 14.8875 4.18461 14.8875 7.99508C14.8875 11.8055 11.8057 14.8874 7.99519 14.8874C4.18473 14.8874 1.10289 11.8055 1.10289 7.99508ZM10.9589 6.02585C10.9589 5.48431 10.5158 5.04123 9.97427 5.04123C9.43273 5.04123 8.98966 5.48431 8.98966 6.02585C8.98966 6.56738 9.43273 7.01046 9.97427 7.01046C10.5158 7.01046 10.9589 6.56738 10.9589 6.02585ZM7.01058 6.02585C7.01058 5.48431 6.5675 5.04123 6.02596 5.04123C5.48442 5.04123 5.04135 5.48431 5.04135 6.02585C5.04135 6.56738 5.48442 7.01046 6.02596 7.01046C6.5675 7.01046 7.01058 6.56738 7.01058 6.02585ZM8.00004 8.125C6.31351 8.125 4.88643 9.21311 4.34731 10.7021L5.99278 11.2979C6.29365 10.4669 7.08658 9.875 8.00004 9.875C8.91351 9.875 9.70643 10.4669 10.0073 11.2979L11.6528 10.7021C11.1137 9.21311 9.68658 8.125 8.00004 8.125Z" class="filled no-stroke" />
<path d="M8 0.5C3.85357 0.5 0.5 3.85357 0.5 8C0.5 12.1464 3.85357 15.5 8 15.5C12.1464 15.5 15.5 12.1464 15.5 8C15.5 3.85357 12.1464 0.5 8 0.5ZM8 2.05853C11.6091 2.05853 14.0085 4.62478 14.0085 8C14.0085 10.4041 11.9638 14.0135 8 14.0135C4.18158 14.0135 1.99087 11.1135 1.99087 8C1.99087 5.39675 3.70171 2.05853 8 2.05853Z" class="filled no-stroke"/>
</svg>
