<svg viewBox="0 0 16 16" xmlns="http://www.w3.org/2000/svg">
<path d="M6.14813 10.3618L7.99756 15.0004L9.85699 10.3618L14.4956 8.50241L9.85699 6.65298L7.99756 2.00439L6.14813 6.65298L1.49954 8.50241L6.14813 10.3618Z" class="stroke-linejoin-round"/>
<path d="M4.91802 2.37634L3.27534 1.71818L2.61948 0.0727682C2.57948 -0.0242561 2.41952 -0.0242561 2.37952 0.0727682L1.72266 1.71818L0.0809838 2.37634C0.0329934 2.39635 0 2.44436 0 2.49637C0 2.54839 0.0319936 2.5964 0.0809838 2.6164L0.130974 2.63641L1.72266 3.27357L2.37952 4.91898C2.39952 4.96699 2.44751 5 2.4995 5C2.55149 5 2.59948 4.96799 2.61948 4.91898L3.27634 3.27357L4.91902 2.6154C4.96701 2.5954 5 2.54739 5 2.49537C5 2.44336 4.96801 2.39535 4.91902 2.37534L4.91802 2.37634Z" class="filled no-stroke"/>
</svg>
