<svg viewBox="0 0 16 16" xmlns="http://www.w3.org/2000/svg">
<path d="M15.916 2.50425L14.194 1.81125L13.501 0.07875C13.459 -0.02625 13.291 -0.02625 13.249 0.07875L12.556 1.81125L10.834 2.50425C10.834 2.50425 10.75 2.57775 10.75 2.63025C10.75 2.68275 10.7815 2.73525 10.834 2.75625L10.8865 2.77725L12.556 3.44925L13.249 5.18175C13.249 5.18175 13.3225 5.26575 13.375 5.26575C13.4275 5.26575 13.48 5.23425 13.501 5.18175L14.194 3.44925L15.916 2.75625C15.916 2.75625 16 2.68275 16 2.63025C16 2.57775 15.9685 2.52525 15.916 2.50425Z" class="filled no-stroke"/>
<path d="M11 11.0049L15 15.0049" class="stroke-linejoin-round"/>
<path d="M9 2.42488C8.39 2.15488 7.71 2.00488 7 2.00488C5.66 2.00488 4.44 2.53488 3.54 3.39488C2.59 4.30488 2 5.58488 2 7.00488C2 9.76488 4.24 12.0049 7 12.0049C9.76 12.0049 12 9.76488 12 7.00488" class="stroke-linejoin-round"/>
</svg>
