<svg viewBox="0 0 16 16" xmlns="http://www.w3.org/2000/svg">
<path class="stroke-linejoin-round" d="M6.15 10.3649L8 15.0049L9.86 10.3649L14.5 8.50488L9.86 6.65488L8 2.00488L6.15 6.65488L1.5 8.50488L6.15 10.3649Z"  />
<path class="filled no-stroke" d="M2.38 4.915C2.4 4.965 2.45 4.995 2.5 4.995C2.55 4.995 2.62 4.915 2.62 4.915L3.28 3.275L4.92 2.615C4.97 2.595 5 2.545 5 2.495C5 2.445 4.92 2.375 4.92 2.375L3.28 1.715L2.62 0.075C2.58 -0.025 2.42 -0.025 2.38 0.075L1.72 1.715L0.0799942 2.375C0.0299942 2.395 0 2.445 0 2.495C0 2.545 0.0799942 2.615 0.0799942 2.615L1.72 3.275L2.38 4.915Z" />
</svg>