<svg viewBox="0 0 16 16" xmlns="http://www.w3.org/2000/svg">
<path d="M6.19 13.275L2 13.975L2.7 9.785L9.9 2.585C10.68 1.805 11.95 1.805 12.73 2.585L13.39 3.245C14.17 4.025 14.17 5.295 13.39 6.075L6.19 13.275Z" class="stroke-linejoin-round"/>
<path d="M9 3.98535L12 6.98535" class="stroke-linejoin-round"/>
<path d="M15.666 13.2044L13.944 12.5114L13.251 10.7789C13.209 10.6739 13.041 10.6739 12.999 10.7789L12.306 12.5114L10.584 13.2044C10.584 13.2044 10.5 13.2779 10.5 13.3304C10.5 13.3829 10.5315 13.4354 10.584 13.4564L10.6365 13.4774L12.306 14.1494L12.999 15.8819C12.999 15.8819 13.0725 15.9659 13.125 15.9659C13.1775 15.9659 13.23 15.9344 13.251 15.8819L13.944 14.1494L15.666 13.4564C15.666 13.4564 15.75 13.3829 15.75 13.3304C15.75 13.2779 15.7185 13.2254 15.666 13.2044Z" class="filled no-stroke" />
</svg>
