<svg viewBox="0 0 16 16" xmlns="http://www.w3.org/2000/svg">
<path d="M15.416 2.50425L13.694 1.81125L13.001 0.07875C12.959 -0.02625 12.791 -0.02625 12.749 0.07875L12.056 1.81125L10.334 2.50425C10.334 2.50425 10.25 2.57775 10.25 2.63025C10.25 2.68275 10.2815 2.73525 10.334 2.75625L10.3865 2.77725L12.056 3.44925L12.749 5.18175C12.749 5.18175 12.8225 5.26575 12.875 5.26575C12.9275 5.26575 12.98 5.23425 13.001 5.18175L13.694 3.44925L15.416 2.75625C15.416 2.75625 15.5 2.68275 15.5 2.63025C15.5 2.57775 15.4685 2.52525 15.416 2.50425Z" class="filled no-stroke" />
<path d="M12.9 7.00488C12.65 8.21488 11.95 9.26488 10.99 9.98488L10 15.0049H6L5.01 9.98488C3.8 9.07488 3 7.63488 3 6.00488C3 3.24488 5.24 1.00488 8 1.00488C8.34 1.00488 8.68 1.03488 9 1.10488" class="stroke-linejoin-round"/>
<path d="M10.5 12.0049H5.5" class="stroke-linejoin-round" />
</svg>