<svg viewBox="0 0 16 16" xmlns="http://www.w3.org/2000/svg">
<path d="M4 3C3.44772 3 3 3.44772 3 4C3 4.55229 3.44772 5 4 5C4.55228 5 5 4.55229 5 4C5 3.44772 4.55228 3 4 3ZM1 4C1 2.34315 2.34315 1 4 1C5.65685 1 7 2.34315 7 4C7 5.65676 5.65701 6.99984 4.00029 7C6.21244 7.00016 8 8.78781 8 11C8 8.78772 9.78771 7 12 7C14.2123 7 16 8.78772 16 11V14C16 14.5523 15.5523 15 15 15H9C8.44771 15 8 14.5523 8 14C8 14.5523 7.55228 15 7 15H1C0.447715 15 0 14.5523 0 14V11C0 8.78772 1.78801 7 4.00029 7C2.34344 7 1 5.65685 1 4ZM12 7C10.3431 7 9 5.65685 9 4C9 2.34315 10.3431 1 12 1C13.6569 1 15 2.34315 15 4C15 5.65685 13.6569 7 12 7ZM11 4C11 3.44772 11.4477 3 12 3C12.5523 3 13 3.44772 13 4C13 4.55229 12.5523 5 12 5C11.4477 5 11 4.55229 11 4ZM10 11C10 9.89228 10.8923 9 12 9C13.1077 9 14 9.89228 14 11V13H10V11ZM2 11C2 9.89228 2.89228 9 4 9C5.10772 9 6 9.89228 6 11V13H2V11Z" class="filled"/>
</svg>
