<svg viewBox="0 0 16 16" xmlns="http://www.w3.org/2000/svg">
<path d="M8 7C8 8.65 9.35 10 11 10C12.65 10 14 8.65 14 7C14 5.35 12.65 4 11 4C9.35 4 8 5.35 8 7Z" class="filled no-stroke"/>
<path d="M6 14V16H16V14C16 12.35 14.65 11 13 11H9C7.35 11 6 12.35 6 14Z" class="filled no-stroke"/>
<path d="M2 3C2 4.65 3.35 6 5 6C6.65 6 8 4.65 8 3C8 1.35 6.65 0 5 0C3.35 0 2 1.35 2 3Z" class="filled no-stroke"/>
<path d="M7.01001 7C7.01001 8.24 7.58001 9.33 8.46001 10.06H8.47001C7.23001 10.23 6.18001 10.96 5.57001 12H0.0100098V10C0.0100098 8.35 1.36001 7 3.01001 7H7.01001Z" class="filled no-stroke"/>
</svg>
