<svg viewBox="0 0 16 16" xmlns="http://www.w3.org/2000/svg">
<g>
<path d="M1.74512 3.5C1.74512 2.11929 2.86441 1 4.24512 1C5.62583 1 6.74512 2.11929 6.74512 3.5C6.74512 4.88071 5.62583 6 4.24512 6C2.86441 6 1.74512 4.88071 1.74512 3.5Z" class="filled no-stroke"/>
<path d="M11.2451 3.5C9.86441 3.5 8.74512 4.61929 8.74512 6C8.74512 7.38071 9.86441 8.5 11.2451 8.5C12.6258 8.5 13.7451 7.38071 13.7451 6C13.7451 4.61929 12.6258 3.5 11.2451 3.5Z" class="filled no-stroke"/>
<path d="M8.09402 8.60191C7.80664 8.28457 7.56652 7.92363 7.38479 7.53019C7.25781 7.51032 7.12767 7.5 6.99512 7.5H2.99512C1.61441 7.5 0.495117 8.61929 0.495117 10V12H5.02606C5.23474 10.3266 6.4771 8.97417 8.09402 8.60191Z" class="filled no-stroke"/>
<path d="M6.49512 12.5C6.49512 11.1193 7.61441 10 8.99512 10H12.9951C14.3758 10 15.4951 11.1193 15.4951 12.5V14.5H6.49512V12.5Z" class="filled no-stroke"/>
</g>
</svg>
