<svg viewBox="0 0 16 16" xmlns="http://www.w3.org/2000/svg">
<path d="M4 1C2.34315 1 1 2.34315 1 4C1 5.65685 2.34315 7 4 7C1.78771 7 0 8.78772 0 11V14C0 14.5523 0.447715 15 1 15H7C7.55228 15 8 14.5523 8 14C8 14.5523 8.44771 15 9 15H15C15.5523 15 16 14.5523 16 14V11C16 8.78772 14.2123 7 12 7C13.6569 7 15 5.65685 15 4C15 2.34315 13.6569 1 12 1C10.3431 1 9 2.34315 9 4C9 5.65624 10.3422 6.99901 11.9982 7C9.78673 7.00099 8 8.78833 8 11C8 8.78772 6.21229 7 4 7C5.65685 7 7 5.65685 7 4C7 2.34315 5.65685 1 4 1ZM11 4C11 3.44772 11.4477 3 12 3C12.5523 3 13 3.44772 13 4C13 4.55229 12.5523 5 12 5C11.4477 5 11 4.55229 11 4ZM10 11C10 9.89228 10.8923 9 12 9C13.1077 9 14 9.89228 14 11V13H10V11Z" class="filled"/>
</svg>
