<svg viewBox="0 0 16 16" xmlns="http://www.w3.org/2000/svg">
<path d="M1.75 3.5C1.75 2.11929 2.86929 1 4.25 1C5.63071 1 6.75 2.11929 6.75 3.5C6.75 4.88071 5.63071 6 4.25 6C2.86929 6 1.75 4.88071 1.75 3.5Z" class="filled no-stroke"/>
<path d="M11.25 3.5C9.86929 3.5 8.75 4.61929 8.75 6C8.75 7.38071 9.86929 8.5 11.25 8.5C12.6307 8.5 13.75 7.38071 13.75 6C13.75 4.61929 12.6307 3.5 11.25 3.5Z" class="filled no-stroke"/>
<path d="M8.09891 8.60191C7.81152 8.28457 7.57141 7.89344 7.38967 7.5H3C1.61929 7.5 0.5 8.61929 0.5 10V12H5.03095C5.23962 10.3266 6.48198 8.97417 8.09891 8.60191Z" class="filled no-stroke"/>
<path d="M6.5 12.5C6.5 11.1193 7.61929 10 9 10H13C14.3807 10 15.5 11.1193 15.5 12.5V14.5H6.5V12.5Z" class="filled no-stroke"/>
</svg>
