<svg viewBox="0 0 16 16" xmlns="http://www.w3.org/2000/svg">
<path d="M7.5 6.5C7.5 8.43 9.07 10 11 10C12.93 10 14.5 8.43 14.5 6.5C14.5 4.57 12.93 3 11 3C9.07 3 7.5 4.57 7.5 6.5ZM9.5 6.5C9.5 5.67 10.17 5 11 5C11.83 5 12.5 5.67 12.5 6.5C12.5 7.33 11.83 8 11 8C10.17 8 9.5 7.33 9.5 6.5Z" class="filled no-stroke"/>
<path d="M14 16H16V14C16 12.35 14.65 11 13 11H9C7.35 11 6 12.35 6 14V16H8V14C8 13.45 8.45 13 9 13H13C13.55 13 14 13.45 14 14V16Z" class="filled no-stroke"/>
<path d="M8.43 2.81C7.27 3.63 6.5 4.97 6.5 6.5C6.5 6.525 6.5025 6.5475 6.505 6.57C6.5075 6.5925 6.51 6.615 6.51 6.64C6.05 6.86 5.54 7 5 7C3.07 7 1.5 5.42 1.5 3.5C1.5 1.58 3.08 0 5 0C6.69 0 8.11 1.21 8.43 2.81ZM3.5 3.5C3.5 4.33 4.17 5 5 5C5.83 5 6.5 4.33 6.5 3.5C6.5 2.67 5.83 2 5 2C4.17 2 3.5 2.67 3.5 3.5Z" class="filled no-stroke"/>
<path d="M8.21 10H3C2.45 10 2 10.45 2 11V13H0V11C0 9.35 1.35 8 3 8H6.78C7.06 8.8 7.57 9.48 8.21 10Z" class="filled no-stroke"/>
</svg>
