<svg viewBox="0 0 16 16" xmlns="http://www.w3.org/2000/svg">
<path d="M8 16.0049C12.4223 16.0049 16 12.4272 16 8.00488C16 3.5826 12.4223 0.0048832 8 0.00488281C5.61087 0.00488277 3.46766 1.05153 2 2.71289V0.00488281H0V5.00488C0 5.27149 0.106629 5.52708 0.295898 5.71484C0.485113 5.9025 0.741333 6.00696 1.00781 6.00488L6.00781 5.96484L5.99219 3.96484L3.54785 3.98438C4.64906 2.76727 6.23561 2.00488 8 2.00488C11.3177 2.00488 14 4.68717 14 8.00488C14 11.3226 11.3177 14.0049 8 14.0049C4.68228 14.0049 2 11.3226 2 8.00488H0C-8.22761e-08 12.4272 3.57772 16.0049 8 16.0049Z" class="filled no-stroke" />
<path d="M9 10.0049C9.55229 10.0049 10 9.55717 10 9.00488V4.00488H8V8.00488H5V10.0049H9Z" class="filled no-stroke" />
</svg>