<svg viewBox="0 0 16 16" xmlns="http://www.w3.org/2000/svg">
<path d="M10.0051 1C7.24513 1 5.00513 3.24 5.00513 6C5.00513 6.69 5.14512 7.35 5.40512 7.96L1.00513 12.36V15.01H5.00513V13.01H8.00513V10.59C8.61513 10.86 9.29513 11.01 10.0051 11.01C12.7651 11.01 15.0051 8.76999 15.0051 6.00999C15.0051 3.24999 12.7651 1.00999 10.0051 1.00999V1Z" class="stroke-linejoin-round"/>
<path d="M10.4951 6C10.4951 6.27614 10.2713 6.5 9.99512 6.5C9.71897 6.5 9.49512 6.27614 9.49512 6C9.49512 5.72386 9.71897 5.5 9.99512 5.5C10.2713 5.5 10.4951 5.72386 10.4951 6Z" class="filled no-stroke"/>
</svg>
