<svg viewBox="0 0 16 16" xmlns="http://www.w3.org/2000/svg">
<path d="M3.01001 15.01H13.01" class="stroke-linejoin-round"/>
<path d="M8.01001 14.01V11.01" class="stroke-linejoin-round"/>
<path d="M6.6001 8.43002C6.9601 8.79002 7.4601 9.02002 8.0101 9.02002C9.1101 9.02002 10.0101 8.12002 10.0101 7.02002V5.02002L6.6001 8.43002Z" class="filled"/>
<path d="M13.0099 7.01001C13.0099 9.77001 10.7699 12.01 8.00992 12.01C6.72992 12.01 5.54992 11.53 4.66992 10.73" class="stroke-linejoin-round"/>
<path d="M3.01001 12.01L13.01 2.01001" class="stroke-linejoin-round"/>
<path d="M8.01001 1.01001C6.91001 1.01001 6.01001 1.91001 6.01001 3.01001V4.68001L9.24001 1.45001C8.90001 1.18001 8.47001 1.01001 8.01001 1.01001Z" class="filled"/>
<path d="M3.00998 7.01001C3.00998 7.49219 2.84766 8.27344 3.33998 8.76001" class="stroke-linejoin-round"/>
</svg>