<svg viewBox="0 0 16 16" xmlns="http://www.w3.org/2000/svg">
<path d="M3 15H13" class="stroke-linejoin-round"/>
<path d="M8 14V11" class="stroke-linejoin-round"/>
<path d="M8 0C6.34315 0 5 1.34315 5 3V7C5 7.09442 5.00436 7.18782 5.0129 7.28001L10.6673 1.62557C10.1688 0.660074 9.1615 0 8 0Z" class="filled no-stroke"/>
<path d="M10.9871 2.72001L5.33267 8.37445C5.83118 9.33994 6.83851 10 8 10C9.65685 10 11 8.65685 11 7V3C11 2.90559 10.9956 2.8122 10.9871 2.72001Z" class="filled no-stroke"/>
<path d="M3.16067 10.5465C4.2529 12.034 6.01421 13 8 13C11.3123 13 14 10.3123 14 7H12C12 9.20772 10.2077 11 8 11C6.56527 11 5.30599 10.2431 4.60005 9.10707L3.16067 10.5465Z" class="filled no-stroke"/>
<path d="M4.16229 8.13062C4.05668 7.77205 4 7.39259 4 7H2C2 7.95826 2.22495 8.86425 2.62491 9.668L4.16229 8.13062Z" class="filled no-stroke"/>
<path d="M13.7071 2.70706L3.70706 12.7071L2.29285 11.2928L12.2928 1.29285L13.7071 2.70706Z" class="filled no-stroke"/>
</svg>
