<svg viewBox="0 0 16 16" xmlns="http://www.w3.org/2000/svg">

<path d="M10.83 6.97C10.83 8.52192 9.57192 9.77999 8.02 9.77999C7.48864 9.77999 6.99173 9.63251 6.56797 9.37624L5.68196 10.2623C6.33791 10.7328 7.14183 11.01 8.00999 11.01C10.2177 11.01 12.01 9.21771 12.01 7.00999H14.01C14.01 9.98159 11.8467 12.4505 9.00999 12.9269V14.01H13.01V16.01H3.00999V14.01H7.00999V12.9269C5.97885 12.7537 5.03669 12.3173 4.25507 11.6891L3.36711 12.5771L1.9529 11.1629L11.9529 1.16289L13.3671 2.5771L10.83 5.11421V6.97Z" class="filled no-stroke"/>
<path d="M5.21 3.06999V6.47147L10.2807 1.40077C9.76887 0.708716 8.94684 0.259995 8.02 0.259995C6.46808 0.259995 5.21 1.51808 5.21 3.06999Z" class="filled no-stroke"/>
<path d="M2.43935 9.24212L4.05699 7.62449C4.02605 7.42415 4.00999 7.21893 4.00999 7.00999H2.00999C2.00999 7.79874 2.1624 8.55206 2.43935 9.24212Z" class="filled no-stroke"/>

</svg>


