<svg viewBox="0 0 16 16" xmlns="http://www.w3.org/2000/svg">
<path class="filled no-stroke" d="M5 3C5 1.34315 6.34315 0 8 0C9.1615 0 10.1688 0.660074 10.6673 1.62557L5.0129 7.28001C5.00436 7.18782 5 7.09442 5 7V3Z" />
<path class="filled no-stroke" d="M11 5.4142L13.7071 2.70711L12.2929 1.29289L2.29288 11.2929L3.70709 12.7071L4.52395 11.8903C5.24686 12.4052 6.08868 12.7639 7 12.9169V14H2.99997V16H13V14H9V12.9169C11.8367 12.4405 14 9.97159 14 7H12C12 9.20772 10.2077 11 8 11C7.25858 11 6.56402 10.7979 5.96846 10.4457L6.70657 9.70762C7.09821 9.89505 7.53685 10 8 10C9.65685 10 11 8.65685 11 7V5.4142Z" />
<path class="filled no-stroke" d="M4.16229 8.13062C4.05668 7.77205 4 7.39259 4 7H2C2 7.95826 2.22495 8.86425 2.62491 9.668L4.16229 8.13062Z" />
</svg>
