<svg viewBox="0 0 16 16" xmlns="http://www.w3.org/2000/svg">
<path class="filled no-stroke" d="M5.5 3C5.5 1.61929 6.61929 0.5 8 0.5C9.06514 0.5 9.9747 1.16612 10.3348 2.1045L5.5 6.93933V3ZM10.5 6.06065L13.5303 3.03033L12.4697 1.96967L2.46967 11.9697L3.53033 13.0303L4.7901 11.7706C5.51089 12.2567 6.34767 12.5838 7.25 12.7015V14.25H3V15.75H13V14.25H8.75V12.7015C11.5702 12.3336 13.75 9.92004 13.75 7H12.25C12.25 9.34579 10.3458 11.25 8 11.25C7.22738 11.25 6.50266 11.0434 5.87811 10.6825L7.19357 9.36708C7.44658 9.45325 7.71783 9.5 8 9.5C9.38071 9.5 10.5 8.38071 10.5 7V6.06065ZM3.75 7C3.75 7.50504 3.83827 7.98962 4.0002 8.43913L2.8601 9.57923C2.4698 8.80341 2.25 7.92724 2.25 7H3.75Z" />
</svg>
