<svg viewBox="0 0 16 16" xmlns="http://www.w3.org/2000/svg">
<path class="filled no-stroke" d="M12.332 6.88789C12.36 6.95796 12.43 7 12.5 7C12.57 7 12.668 6.88789 12.668 6.88789L13.592 4.58959L15.888 3.66466C15.9212 3.65083 15.9495 3.62748 15.9694 3.59755C15.9894 3.56763 16 3.53246 16 3.4965C16 3.42643 15.888 3.32833 15.888 3.32833L13.592 2.4034L12.668 0.105105C12.612 -0.035035 12.388 -0.035035 12.332 0.105105L11.408 2.4034L9.112 3.32833C9.07883 3.34216 9.0505 3.36551 9.03057 3.39544C9.01064 3.42537 9 3.46053 9 3.4965C9 3.56657 9.112 3.66466 9.112 3.66466L11.408 4.58959L12.332 6.88789Z" />
<path class="stroke-linejoin-round" d="M11 11.0049L15 15.0049" />
<path class="stroke-linejoin-round" d="M11.9008 8C11.439 10.2838 9.41929 12.0049 7 12.0049C4.24 12.0049 2 9.76488 2 7.00488C2 5.58488 2.59 4.30488 3.54 3.39488C4.44 2.53488 5.66 2.00488 7 2.00488C7.34177 2.00488 7.67659 2.03964 8 2.10581" />
</svg>
