<svg viewBox="0 0 16 16" xmlns="http://www.w3.org/2000/svg">
<path d="M8 1C6.29 2.53 4.13 3.32001 2 3.48001V6.96001C2 9.01001 2.76001 10.84 3.71001 12.1C4.63001 13.32 6.03 14.31 8 15C9.97 14.31 11.37 13.32 12.29 12.1C13.24 10.84 14 9.01001 14 6.96001V3.48001C11.87 3.32001 9.71 2.52 8 1Z" class="stroke-linejoin-round"/>
<path d="M8 4L8.01001 9.01001"/>
<path d="M8 10.5C8.41421 10.5 8.75 10.8358 8.75 11.25V11.25C8.75 11.6642 8.41421 12 8 12V12C7.58579 12 7.25 11.6642 7.25 11.25V11.25C7.25 10.8358 7.58579 10.5 8 10.5V10.5Z" class="filled no-stroke"/>
</svg>
