<svg viewBox="0 0 16 16" xmlns="http://www.w3.org/2000/svg">
<path d="M3.5 11C4.88071 11 6 9.88071 6 8.5C6 7.11929 4.88071 6 3.5 6C2.11929 6 1 7.11929 1 8.5C1 9.88071 2.11929 11 3.5 11Z" />
<path d="M12.5 6C13.8807 6 15 4.88071 15 3.5C15 2.11929 13.8807 1 12.5 1C11.1193 1 10 2.11929 10 3.5C10 4.88071 11.1193 6 12.5 6Z" />
<path d="M12.5 15C13.8807 15 15 13.8807 15 12.5C15 11.1193 13.8807 10 12.5 10C11.1193 10 10 11.1193 10 12.5C10 13.8807 11.1193 15 12.5 15Z" />
<path d="M10.3261 4.70035L5.67834 7.29273" />
<path d="M10.2235 11.483L5.77487 9.52324" />
</svg>
