<svg viewBox="0 0 16 16" xmlns="http://www.w3.org/2000/svg">
<path d="M8 5L8 9.5" class="stroke-linejoin-round"/>
<path d="M8 10.5C8.41421 10.5 8.75 10.8358 8.75 11.25V11.25C8.75 11.6642 8.41421 12 8 12V12C7.58579 12 7.25 11.6642 7.25 11.25V11.25C7.25 10.8358 7.58579 10.5 8 10.5V10.5Z" class="filled no-stroke"/>
<path d="M6.53 1.88L1.20001 11.65C1.07001 11.88 1.01001 12.15 1.01001 12.41C1.01001 13.29 1.72001 14 2.60001 14H13.41C14.29 14 15 13.29 15 12.41C15 12.14 14.93 11.88 14.81 11.65L9.48001 1.88C9.18001 1.34 8.62 1 8 1C7.38 1 6.82002 1.34 6.52002 1.88H6.53Z" class="stroke-linejoin-round"/>
</svg>
