<svg viewBox="0 0 16 16" xmlns="http://www.w3.org/2000/svg">
<path class="filled no-stroke" d="M15.888 3.32901L13.592 2.40778L12.668 0.104686C12.612 -0.0348953 12.388 -0.0348953 12.332 0.104686L11.408 2.40778L9.112 3.32901C9.112 3.32901 9 3.42672 9 3.49651C9 3.5663 9.042 3.63609 9.112 3.66401L9.182 3.69192L11.408 4.58524L12.332 6.88833C12.332 6.88833 12.43 7 12.5 7C12.57 7 12.64 6.95813 12.668 6.88833L13.592 4.58524L15.888 3.66401C15.888 3.66401 16 3.5663 16 3.49651C16 3.42672 15.958 3.35693 15.888 3.32901Z" />
<path class="stroke-linejoin-round" d="M12.3476 8.45059C12.0041 9.04731 11.5397 9.56775 10.99 9.98L10 15H6L5.01 9.98C3.8 9.07 3 7.63 3 6C3 3.24 5.24 1 8 1" />
<path class="stroke-linejoin-round" d="M10.5 12.0049H5.5" />
</svg>
