<svg viewBox="0 0 16 16" xmlns="http://www.w3.org/2000/svg">
<path d="M4.98553 1.85866C6.7646 0.577225 9.23535 0.577225 11.0144 1.85866L11.0136 1.85807C12.2088 2.71712 13.0229 4.0501 13 5.7675C12.9972 7.56539 12.0031 8.73755 11.2169 9.54599C11.0753 9.69161 10.9481 9.81835 10.8325 9.93357C10.5965 10.1688 10.4086 10.356 10.2445 10.5578C10.0157 10.8391 9.99998 10.9605 9.99998 11.0001V12.0001H5.99998V11.0001C5.99998 10.9605 5.98426 10.8391 5.75545 10.5578C5.59133 10.356 5.40349 10.1688 5.16745 9.93357C5.05184 9.81835 4.92467 9.69161 4.78306 9.54599C3.9969 8.73755 3.0027 7.56538 2.99998 5.76747C2.97709 4.05009 3.79116 2.71711 4.98635 1.85807L4.98553 1.85866ZM9.84552 3.48151C8.76459 2.70294 7.23536 2.70294 6.15444 3.48151L6.15362 3.4821C5.43051 4.00183 4.98518 4.74628 4.99987 5.74537L4.99998 5.75273V5.76008C4.99998 6.73799 5.50413 7.41871 6.21689 8.15167C6.30224 8.23943 6.39713 8.3341 6.49645 8.43317C6.76864 8.7047 7.07402 9.00935 7.30701 9.29579C7.46802 9.49375 7.63499 9.72856 7.76468 10.0001H8.23528C8.36497 9.72856 8.53193 9.49375 8.69295 9.29579C8.92593 9.00935 9.23132 8.7047 9.5035 8.43317C9.60282 8.3341 9.69772 8.23943 9.78306 8.15167C10.4958 7.41871 11 6.73799 11 5.76008V5.75273L11.0001 5.74537C11.0148 4.74628 10.5694 4.00183 9.84633 3.4821L9.84552 3.48151ZM9.99997 15H5.99997V13H9.99997V15Z" class="filled"/>
</svg>
