<svg viewBox="0 0 16 16" xmlns="http://www.w3.org/2000/svg">
<path d="M8.5002 10.5H6.5002V8.5H4.5002V6.5H6.5002V4.5H8.5002V6.5H10.5002V8.5H8.5002V10.5Z" class="filled"/>
<path d="M1 7.385C1 10.905 3.864 13.77 7.385 13.77C8.78542 13.77 10.0819 13.3168 11.1356 12.5494L14.2932 15.707L15.7072 14.293L12.5495 11.1353C13.3169 10.0816 13.77 8.7851 13.77 7.385C13.77 3.864 10.906 1 7.385 1C3.864 1 1 3.864 1 7.385ZM3 7.385C3 4.967 4.967 3 7.385 3C9.803 3 11.77 4.967 11.77 7.385C11.77 9.803 9.803 11.77 7.385 11.77C4.967 11.77 3 9.803 3 7.385Z" class="filled"/>
</svg>
