<svg width="80" height="69" viewBox="0 0 80 69" fill="none" xmlns="http://www.w3.org/2000/svg">
<path d="M29 25H1V67H29V25Z" stroke="#D5DBDB" stroke-width="2" stroke-linejoin="round"/>
<path d="M80 67.22H42" stroke="#D5DBDB" stroke-width="2" stroke-linejoin="round"/>
<path d="M51.6699 17.22H44.6699V67.22H51.6699V17.22Z" stroke="#D5DBDB" stroke-width="2" stroke-linejoin="round"/>
<path d="M64.6699 6.21997H57.6699V67.22H64.6699V6.21997Z" stroke="#D5DBDB" stroke-width="2" stroke-linejoin="round"/>
<path d="M77.6699 40.22H70.6699V67.22H77.6699V40.22Z" stroke="#D5DBDB" stroke-width="2" stroke-linejoin="round"/>
<path d="M1 39H30" stroke="#D5DBDB" stroke-width="2" stroke-linejoin="round"/>
<path d="M1 53H30" stroke="#D5DBDB" stroke-width="2" stroke-linejoin="round"/>
<path d="M13 60H24" stroke="#D5DBDB" stroke-width="2" stroke-linejoin="round"/>
<path d="M13 46H24" stroke="#D5DBDB" stroke-width="2" stroke-linejoin="round"/>
<path d="M13 32H24" stroke="#D5DBDB" stroke-width="2" stroke-linejoin="round"/>
<path d="M5 60H9" stroke="#D5DBDB" stroke-width="2" stroke-linejoin="round"/>
<path d="M5 46H9" stroke="#D5DBDB" stroke-width="2" stroke-linejoin="round"/>
<path d="M5 32H9" stroke="#D5DBDB" stroke-width="2" stroke-linejoin="round"/>
<path d="M40.16 58C47.892 58 54.16 51.732 54.16 44C54.16 36.268 47.892 30 40.16 30C32.428 30 26.16 36.268 26.16 44C26.16 51.732 32.428 58 40.16 58Z" fill="#16191F" stroke="#D5DBDB" stroke-width="2" stroke-linejoin="round"/>
<path d="M33.16 44H47.16" stroke="#99CBE4" stroke-width="2" stroke-linejoin="round"/>
<path d="M40.16 37V51" stroke="#99CBE4" stroke-width="2" stroke-linejoin="round"/>
</svg>
