<svg xmlns="http://www.w3.org/2000/svg" viewBox="0 0 16 16">
	<path class="filled" d="M13.92 3.061C13.2234 2.38093 12.2885 2.00022 11.315 2.00022C10.3415 2.00022 9.40658 2.38093 8.71 3.061L8 3.76L7.29 3.061C6.59342 2.38093 5.65851 2.00022 4.685 2.00022C3.71149 2.00022 2.77658 2.38093 2.08 3.061C1.73847 3.39447 1.46707 3.79287 1.28178 4.23276C1.09648 4.67266 1.00102 5.14517 1.00102 5.6225C1.00102 6.09983 1.09648 6.57234 1.28178 7.01224C1.46707 7.45213 1.73847 7.85053 2.08 8.184L7.29 13.308L7.293 13.304L8 14L8.707 13.304L8.711 13.308L13.921 8.184C14.2625 7.85053 14.5339 7.45213 14.7192 7.01224C14.9045 6.57234 15 6.09983 15 5.6225C15 5.14517 14.9045 4.67266 14.7192 4.23276C14.5339 3.79287 14.2615 3.39447 13.92 3.061Z" />
</svg>
