<svg xmlns="http://www.w3.org/2000/svg" viewBox="0 0 16 16">
  <path d="M13.32946,5.79213a1.942,1.942,0,0,1,.28763-1.9695,6.98367,6.98367,0,0,0-1.44073-1.43956A1.94292,1.94292,0,0,1,9.018,1.075a6.96533,6.96533,0,0,0-2.03667-.00031A1.94283,1.94283,0,0,1,3.82308,2.38286,6.96194,6.96194,0,0,0,2.38315,3.8232a1.94273,1.94273,0,0,1-1.30786,3.158,6.97177,6.97177,0,0,0-.001,2.03673,1.94287,1.94287,0,0,1,1.30844,3.15878A6.95153,6.95153,0,0,0,3.82383,13.6166a1.94248,1.94248,0,0,1,3.15788,1.30825,6.96248,6.96248,0,0,0,2.03677.00054,1.94239,1.94239,0,0,1,3.15829-1.30818,6.97421,6.97421,0,0,0,1.43984-1.44056,1.94255,1.94255,0,0,1,1.3083-3.15816,6.97359,6.97359,0,0,0,.00061-2.03709A1.94155,1.94155,0,0,1,13.32946,5.79213Z"/>
  <circle cx="8" cy="8" r="2"/>
</svg>