<svg width="43" height="31" viewBox="0 0 43 31" fill="none" xmlns="http://www.w3.org/2000/svg">
<g clip-path="url(#clip0_3693_1034)">
<path d="M40.5 0.5H2.5C1.39543 0.5 0.5 1.39543 0.5 2.5V28.5C0.5 29.6046 1.39543 30.5 2.5 30.5H40.5C41.6046 30.5 42.5 29.6046 42.5 28.5V2.5C42.5 1.39543 41.6046 0.5 40.5 0.5Z" fill="#7C7F83" fill-opacity="0.2"/>
<path d="M9.008 19V10.684H10.232V17.992H14.156V19H9.008ZM17.773 19.18C16.861 19.18 16.149 18.896 15.637 18.328C15.125 17.76 14.869 16.968 14.869 15.952C14.869 14.944 15.125 14.156 15.637 13.588C16.149 13.02 16.861 12.736 17.773 12.736C18.685 12.736 19.397 13.02 19.909 13.588C20.421 14.156 20.677 14.944 20.677 15.952C20.677 16.968 20.421 17.76 19.909 18.328C19.397 18.896 18.685 19.18 17.773 19.18ZM17.773 18.22C18.901 18.22 19.465 17.464 19.465 15.952C19.465 14.448 18.901 13.696 17.773 13.696C16.645 13.696 16.081 14.448 16.081 15.952C16.081 17.464 16.645 18.22 17.773 18.22ZM26.1499 18.172C25.8779 18.404 25.5859 18.584 25.2739 18.712C24.9619 18.832 24.6459 18.892 24.3259 18.892C23.8379 18.892 23.4059 18.772 23.0299 18.532C22.6539 18.292 22.3579 17.944 22.1419 17.488C21.9339 17.024 21.8299 16.484 21.8299 15.868C21.8299 14.908 22.0579 14.148 22.5139 13.588C22.9699 13.02 23.5819 12.736 24.3499 12.736C25.0699 12.736 25.6979 12.984 26.2339 13.48L26.3299 12.916H27.3259V18.628C27.3259 19.58 27.0699 20.316 26.5579 20.836C26.0539 21.356 25.3339 21.616 24.3979 21.616C23.6459 21.616 22.9539 21.456 22.3219 21.136V20.284C23.0579 20.532 23.7179 20.656 24.3019 20.656C24.9419 20.656 25.4099 20.5 25.7059 20.188C26.0019 19.884 26.1499 19.392 26.1499 18.712V18.172ZM24.6739 17.932C25.1699 17.932 25.6619 17.748 26.1499 17.38V14.224C25.9099 14.04 25.6659 13.908 25.4179 13.828C25.1699 13.74 24.8979 13.696 24.6019 13.696C23.5619 13.696 23.0419 14.404 23.0419 15.82C23.0419 16.516 23.1779 17.044 23.4499 17.404C23.7299 17.756 24.1379 17.932 24.6739 17.932ZM31.6948 19.18C30.7828 19.18 30.0708 18.896 29.5588 18.328C29.0468 17.76 28.7908 16.968 28.7908 15.952C28.7908 14.944 29.0468 14.156 29.5588 13.588C30.0708 13.02 30.7828 12.736 31.6948 12.736C32.6068 12.736 33.3188 13.02 33.8308 13.588C34.3428 14.156 34.5988 14.944 34.5988 15.952C34.5988 16.968 34.3428 17.76 33.8308 18.328C33.3188 18.896 32.6068 19.18 31.6948 19.18ZM31.6948 18.22C32.8228 18.22 33.3868 17.464 33.3868 15.952C33.3868 14.448 32.8228 13.696 31.6948 13.696C30.5668 13.696 30.0028 14.448 30.0028 15.952C30.0028 17.464 30.5668 18.22 31.6948 18.22Z" fill="#67696C"/>
</g>
<defs>
<clipPath id="clip0_3693_1034">
<rect width="43" height="31" fill="white"/>
</clipPath>
</defs>
</svg>
