<svg width="24" height="25" viewBox="0 0 24 25" fill="none" xmlns="http://www.w3.org/2000/svg">
<circle cx="12" cy="12.1364" r="11.5" stroke="white"/>
<path d="M16.6609 16.7969C14.3699 19.0879 11.7635 20.5953 9.42136 21.1976C7.06665 21.8031 5.07762 21.477 3.8687 20.2681C2.65978 19.0592 2.33372 17.0702 2.93922 14.7155C3.54148 12.3733 5.04893 9.76694 7.33995 7.47592C9.63097 5.1849 12.2374 3.67745 14.5795 3.07519C16.9342 2.46969 18.9232 2.79575 20.1322 4.00467C21.3411 5.21359 21.6671 7.20262 21.0616 9.55733C20.4594 11.8995 18.9519 14.5058 16.6609 16.7969Z" stroke="white"/>
<path d="M16.6608 7.47581C18.9518 9.76684 20.4592 12.3732 21.0615 14.7154C21.667 17.0701 21.3409 19.0591 20.132 20.268C18.9231 21.4769 16.9341 21.803 14.5794 21.1975C12.2372 20.5952 9.63083 19.0878 7.33981 16.7968C5.04879 14.5057 3.54134 11.8994 2.93908 9.55722C2.33358 7.20251 2.65964 5.21348 3.86856 4.00456C5.07748 2.79564 7.06651 2.46959 9.42122 3.07508C11.7634 3.67735 14.3697 5.18479 16.6608 7.47581Z" stroke="white"/>
</svg>
